<?xml version="1.0" encoding="UTF-8" standalone="no"?>
<!-- Created with Inkscape (http://www.inkscape.org/) -->

<svg
   width="213.77415"
   height="168.76907"
   viewBox="0 0 56.561076 44.653484"
   version="1.1"
   id="svg1"
   xml:space="preserve"
   inkscape:export-filename="bitmap.png"
   inkscape:export-xdpi="96"
   inkscape:export-ydpi="96"
   xmlns:inkscape="http://www.inkscape.org/namespaces/inkscape"
   xmlns:sodipodi="http://sodipodi.sourceforge.net/DTD/sodipodi-0.dtd"
   xmlns="http://www.w3.org/2000/svg"
   xmlns:svg="http://www.w3.org/2000/svg"><sodipodi:namedview
     id="namedview1"
     pagecolor="#f0f0f0"
     bordercolor="#000000"
     borderopacity="0.25"
     inkscape:showpageshadow="2"
     inkscape:pageopacity="0.0"
     inkscape:pagecheckerboard="0"
     inkscape:deskcolor="#d1d1d1"
     inkscape:document-units="mm"
     inkscape:export-bgcolor="#ffffff00" /><defs
     id="defs1" /><g
     inkscape:label="Layer 1"
     inkscape:groupmode="layer"
     id="layer1"
     transform="translate(-39.452795,-11.539926)"><g
       id="g5"
       style="fill:#375af6;fill-opacity:1"><g
         style="fill:#375af6;fill-opacity:1"
         id="g1"
         transform="matrix(0.07442247,0,0,0.07442247,32.010548,69.589452)"><path
           d="m 172.31,-180 q -30.31,0 -51.31,-21 -21,-21 -21,-51.31 v -455.38 q 0,-30.31 21,-51.31 21,-21 51.31,-21 h 219.61 l 80,80 h 315.77 q 30.31,0 51.31,21 21,21 21,51.31 v 375.38 q 0,30.31 -21,51.31 -21,21 -51.31,21 z m 0,-60 h 615.38 q 5.39,0 8.85,-3.46 3.46,-3.46 3.46,-8.85 v -375.38 q 0,-5.39 -3.46,-8.85 -3.46,-3.46 -8.85,-3.46 H 447.38 l -80,-80 H 172.31 q -5.39,0 -8.85,3.46 -3.46,3.46 -3.46,8.85 v 455.38 q 0,5.39 3.46,8.85 3.46,3.46 8.85,3.46 z m -12.31,0 v -480 z"
           id="path1"
           style="fill:#375af6;fill-opacity:1" /></g><g
         style="fill:#375af6;fill-opacity:1"
         id="g4"
         transform="matrix(0.04976916,0,0,0.04976916,46.738213,61.785411)"><path
           d="m 231.38001,-148 -42.15,-42.15 393.62,-393.62 h -137.85 v 80 h -60 v -140 h 239.92 q 9.85,0 19.08,3.69 9.23,3.7 16,10.46 l 121.92,121.31 q 27.77,27.77 65.62,43.73 37.84,15.96 81.31,16.58 v 60 q -56.23,0 -103.08,-19.39 -46.85,-19.38 -83.54,-55.46 l -45.38,-46.61 -106.08,105.69 88.07,88.08 -241.99,139.84 -30,-52.46 173.92,-100.15 -84.15,-84.16 z m -76.38,-275.77 v -60 h 180 v 60 z m -80.000001,-120 v -60 H 255.00001 v 60 z m 719.000001,-80 q -29.15,0 -50.08,-20.62 -20.92,-20.61 -20.92,-49.76 0,-29.16 20.92,-49.77 20.93,-20.62 50.08,-20.62 29.15,0 50.08,20.62 20.92,20.61 20.92,49.77 0,29.15 -20.92,49.76 -20.93,20.62 -50.08,20.62 z m -639,-40 v -60 h 180 v 60 z"
           id="path1-8"
           style="fill:#375af6;fill-opacity:1" /></g></g></g></svg>
